<svg width="103" height="100" viewBox="0 0 103 100" fill="none" xmlns="http://www.w3.org/2000/svg">
<circle cx="49.5845" cy="49.5845" r="49.5845" fill="#F03131"/>
<circle cx="49.5845" cy="49.5845" r="48.0819" stroke="white" stroke-width="3.00512"/>
<path d="M51.6581 45.6551C50.2758 45.3095 48.8934 44.6183 47.8567 43.5815C46.8199 43.236 46.4743 42.1992 46.4743 41.508C46.4743 40.8168 46.8199 39.7801 47.5111 39.4345C48.5478 38.7433 49.5846 38.0521 50.6214 38.3977C52.6949 38.3977 54.4228 39.4345 55.4596 40.8168L58.5699 36.6698C57.5331 35.633 56.4964 34.9418 55.4596 34.2506C54.4228 33.5595 53.0405 33.2139 51.6581 33.2139V28.3756H47.5111V33.2139C45.7831 33.5595 44.0552 34.5962 42.6728 35.9786C41.2905 37.7065 40.2537 39.7801 40.5993 41.8536C40.5993 43.9271 41.2905 46.0007 42.6728 47.383C44.4008 49.111 46.8199 50.1477 48.8934 51.1845C49.9302 51.5301 51.3125 52.2213 52.3493 52.9124C53.0405 53.6036 53.3861 54.6404 53.3861 55.6772C53.3861 56.7139 53.0405 57.7507 52.3493 58.7875C51.3125 59.8242 49.9302 60.1698 48.8934 60.1698C47.5111 60.1698 45.7831 59.8242 44.7464 58.7875C43.7096 58.0963 42.6728 57.0595 41.9816 56.0227L38.5258 59.8242C39.5625 61.2066 40.5993 62.2433 41.9816 63.2801C43.7096 64.3169 45.7831 65.3536 47.8567 65.3536V69.8463H51.6581V64.6625C53.7317 64.3169 55.4596 63.2801 56.842 61.8977C58.5699 60.1698 59.6067 57.4051 59.6067 54.986C59.6067 52.9124 58.9155 50.4933 57.1875 49.111C55.4596 47.383 53.7317 46.3463 51.6581 45.6551V45.6551ZM49.5846 21.4639C34.3787 21.4639 21.9375 33.9051 21.9375 49.111C21.9375 64.3169 34.3787 76.7581 49.5846 76.7581C64.7905 76.7581 77.2317 64.3169 77.2317 49.111C77.2317 33.9051 64.7905 21.4639 49.5846 21.4639ZM49.5846 72.9566C36.4522 72.9566 25.739 62.2433 25.739 49.111C25.739 35.9786 36.4522 25.2653 49.5846 25.2653C62.717 25.2653 73.4302 35.9786 73.4302 49.111C73.4302 62.2433 62.717 72.9566 49.5846 72.9566V72.9566Z" fill="white"/>
<circle cx="97.6659" cy="54.12" r="4.50768" fill="white"/>
</svg>
