<svg width="100" height="100" viewBox="0 0 100 100" fill="none" xmlns="http://www.w3.org/2000/svg">
<g clip-path="url(#clip0_2_1188)">
<circle cx="49.5845" cy="49.5757" r="49.5845" fill="#F03131"/>
<path d="M51.6327 46.1033C50.2504 45.7577 48.868 45.0666 47.8313 44.0298C46.7945 43.6842 46.4489 42.6474 46.4489 41.9563C46.4489 41.2651 46.7945 40.2283 47.4857 39.8827C48.5224 39.1915 49.5592 38.5004 50.596 38.846C52.6695 38.846 54.3974 39.8827 55.4342 41.2651L58.5445 37.118C57.5078 36.0812 56.471 35.3901 55.4342 34.6989C54.3974 34.0077 53.0151 33.6621 51.6327 33.6621V28.8239H47.4857V33.6621C45.7577 34.0077 44.0298 35.0445 42.6474 36.4268C41.2651 38.1548 40.2283 40.2283 40.5739 42.3018C40.5739 44.3754 41.2651 46.4489 42.6474 47.8313C44.3754 49.5592 46.7945 50.596 48.868 51.6327C49.9048 51.9783 51.2872 52.6695 52.3239 53.3607C53.0151 54.0519 53.3607 55.0886 53.3607 56.1254C53.3607 57.1622 53.0151 58.1989 52.3239 59.2357C51.2872 60.2725 49.9048 60.618 48.868 60.618C47.4857 60.618 45.7577 60.2725 44.721 59.2357C43.6842 58.5445 42.6474 57.5077 41.9563 56.471L38.5004 60.2725C39.5371 61.6548 40.5739 62.6916 41.9563 63.7283C43.6842 64.7651 45.7577 65.8019 47.8313 65.8019V70.2945H51.6327V65.1107C53.7063 64.7651 55.4342 63.7283 56.8166 62.346C58.5445 60.618 59.5813 57.8533 59.5813 55.4342C59.5813 53.3607 58.8901 50.9416 57.1622 49.5592C55.4342 47.8313 53.7063 46.7945 51.6327 46.1033V46.1033ZM49.5592 21.9121C34.3533 21.9121 21.9121 34.3533 21.9121 49.5592C21.9121 64.7651 34.3533 77.2063 49.5592 77.2063C64.7651 77.2063 77.2063 64.7651 77.2063 49.5592C77.2063 34.3533 64.7651 21.9121 49.5592 21.9121ZM49.5592 73.4048C36.4268 73.4048 25.7136 62.6916 25.7136 49.5592C25.7136 36.4268 36.4268 25.7136 49.5592 25.7136C62.6916 25.7136 73.4048 36.4268 73.4048 49.5592C73.4048 62.6916 62.6916 73.4048 49.5592 73.4048V73.4048Z" fill="white"/>
</g>
<defs>
<clipPath id="clip0_2_1188">
<rect width="100" height="100" fill="white" transform="translate(0 -0.00878906)"/>
</clipPath>
</defs>
</svg>
